HIERARCHY
ROOT Hips
{
	OFFSET 0.000000 0.000000 0.000000
	CHANNELS 6 Xposition Yposition Zposition Zrotation Yrotation Xrotation 
	JOINT LowerBack
	{
		OFFSET 0.000000 0.000000 0.000000
		CHANNELS 3 Zrotation Yrotation Xrotation
		JOINT Spine
		{
			OFFSET 0.028270 2.035590 -0.193380
			CHANNELS 3 Zrotation Yrotation Xrotation
			JOINT Spine1
			{
				OFFSET 0.056720 2.048850 -0.042750
				CHANNELS 3 Zrotation Yrotation Xrotation
				JOINT Neck
				{
					OFFSET 0.000000 0.000000 0.000000
					CHANNELS 3 Zrotation Yrotation Xrotation
					JOINT Neck1
					{
						OFFSET -0.054170 1.746240 0.172020
						CHANNELS 3 Zrotation Yrotation Xrotation
						JOINT Head
						{
							OFFSET 0.104070 1.761360 -0.123970
							CHANNELS 3 Zrotation Yrotation Xrotation
							End Site
							{
								OFFSET 0.000000 0.000000 0.000000
							}
						}
					}
				}
				JOINT LeftShoulder
				{
					OFFSET 0.000000 0.000000 0.000000
					CHANNELS 3 Zrotation Yrotation Xrotation
					JOINT LeftArm
					{
						OFFSET 3.362410 1.200890 -0.311210
						CHANNELS 3 Zrotation Yrotation Xrotation
						JOINT LeftForeArm
						{
							OFFSET 4.983000 -0.000000 -0.000000
							CHANNELS 3 Zrotation Yrotation Xrotation
							JOINT LeftHand
							{
								OFFSET 3.483560 -0.000000 -0.000000
								CHANNELS 3 Zrotation Yrotation Xrotation
								JOINT LeftFingerBase
								{
									OFFSET 0.000000 0.000000 0.000000
									CHANNELS 3 Zrotation Yrotation Xrotation
									JOINT LeftHandIndex1
									{
										OFFSET 0.715260 -0.000000 -0.000000
										CHANNELS 3 Zrotation Yrotation Xrotation
										End Site
										{
											OFFSET 0.000000 0.000000 0.000000
										}
									}
								}
								JOINT LThumb
								{
									OFFSET 0.000000 0.000000 0.000000
									CHANNELS 3 Zrotation Yrotation Xrotation
									End Site
									{
										OFFSET 0.000000 0.000000 0.000000
									}
								}
							}
						}
					}
				}
				JOINT RightShoulder
				{
					OFFSET 0.000000 0.000000 0.000000
					CHANNELS 3 Zrotation Yrotation Xrotation
					JOINT RightArm
					{
						OFFSET -3.136600 1.374050 -0.404650
						CHANNELS 3 Zrotation Yrotation Xrotation
						JOINT RightForeArm
						{
							OFFSET -5.241900 -0.000000 -0.000000
							CHANNELS 3 Zrotation Yrotation Xrotation
							JOINT RightHand
							{
								OFFSET -3.444170 -0.000000 -0.000000
								CHANNELS 3 Zrotation Yrotation Xrotation
								JOINT RightFingerBase
								{
									OFFSET 0.000000 0.000000 0.000000
									CHANNELS 3 Zrotation Yrotation Xrotation
									JOINT RightHandIndex1
									{
										OFFSET -0.622530 -0.000000 -0.000000
										CHANNELS 3 Zrotation Yrotation Xrotation
										End Site
										{
											OFFSET 0.000000 0.000000 0.000000
										}
									}
								}
								JOINT RThumb
								{
									OFFSET 0.000000 0.000000 0.000000
									CHANNELS 3 Zrotation Yrotation Xrotation
									End Site
									{
										OFFSET 0.000000 0.000000 0.000000
									}
								}
							}
						}
					}
				}
			}
		}
	}
}
}
MOTION
Frames: 17
Frame Time: 0.008333
2.292658 16.465761 -1.503905 -165.280749 82.312322 -147.945741 8.844930 -2.440136 2.630366 0.554100 -2.965784 -2.024365 -8.334621 -2.909028 1.557694 8.673194 -5.992876 -5.911760 -4.615552 -0.350658 0.306698 0.000000 0.000000 0.000000 0.157833 7.048674 2.626798 -30.379150 -14.166841 3.549192 -0.746239 -78.879936 0.043526 -10.925147 0.427935 -0.019233 0.048830 0.222919 0.000000 0.000000 0.000000 0.000000 0.000000 0.000000 0.000000 19.173591 -4.900879 1.138969 65.759749 -5.613175 -15.003394 3.979073 17.312018 0.022043 2.156290 11.746265 0.214791 0.089400 -0.078202 -0.000000 0.000000 0.000000 0.000000 0.000000 0.000000 0.000000 
2.466418 16.469041 -1.529093 -163.852159 81.612058 -146.508504 9.502708 -2.314191 2.779936 0.679352 -2.866552 -2.031514 -8.311092 -2.817793 1.466482 8.633311 -5.444967 -5.741697 -4.667807 -0.354727 0.347519 0.000000 0.000000 0.000000 0.024471 7.028203 2.608517 -31.591554 -13.941417 4.003315 -0.779679 -78.707836 0.042878 -10.793059 0.423512 -0.018583 0.042015 0.221899 0.000000 0.000000 0.000000 0.000000 0.000000 0.000000 0.000000 19.225696 -4.360701 1.182454 65.570123 -5.031221 -15.431212 3.984848 16.203910 0.021646 1.872686 11.742580 0.185378 0.089453 -0.078233 -0.000000 0.000000 0.000000 0.000000 0.000000 0.000000 0.000000 
2.636771 16.477858 -1.551588 -163.271156 80.849906 -145.899228 10.040624 -2.209709 2.899400 0.782566 -2.783427 -2.041765 -8.288806 -2.742575 1.381190 8.639164 -4.893452 -5.555976 -4.717789 -0.358719 0.393191 0.000000 0.000000 0.000000 -0.063350 6.976138 2.590042 -32.840220 -13.699651 4.571238 -0.816949 -78.468364 0.042167 -10.676466 0.418502 -0.018032 0.035705 0.220191 0.000000 0.000000 0.000000 0.000000 0.000000 0.000000 0.000000 19.322818 -3.835015 1.220260 65.380434 -4.359526 -15.850080 3.985819 15.055573 0.021235 1.614319 11.755808 0.158765 0.089145 -0.078347 -0.000000 0.000000 0.000000 0.000000 0.000000 0.000000 0.000000 
2.804275 16.492062 -1.571345 -163.387140 80.031683 -145.962171 10.456513 -2.126520 2.979999 0.862805 -2.717033 -2.056672 -8.269332 -2.683766 1.303268 8.685206 -4.353306 -5.360931 -4.764685 -0.362562 0.442235 0.000000 0.000000 0.000000 -0.124855 6.892137 2.573273 -34.084276 -13.435222 5.255267 -0.857214 -78.172946 0.041370 -10.577136 0.417114 -0.017884 0.029934 0.217605 0.000000 0.000000 0.000000 0.000000 0.000000 0.000000 0.000000 19.459787 -3.336571 1.252898 65.193781 -3.598770 -16.257931 3.982041 13.887433 0.020834 1.383532 11.791828 0.135351 0.088522 -0.078665 -0.000000 0.000000 0.000000 0.000000 0.000000 0.000000 0.000000 
2.969370 16.511511 -1.588565 -164.077035 79.160275 -146.569785 10.746131 -2.063990 3.016619 0.919120 -2.667118 -2.077074 -8.252650 -2.640955 1.233720 8.766608 -3.828852 -5.162369 -4.808193 -0.366213 0.493123 0.000000 0.000000 0.000000 -0.164639 6.787449 2.560261 -35.313053 -13.164680 6.056832 -0.901865 -77.807559 0.040498 -10.499749 0.420137 -0.018338 0.024622 0.214130 0.000000 0.000000 0.000000 0.000000 0.000000 0.000000 0.000000 19.633450 -2.865549 1.280044 65.011063 -2.769355 -16.635212 3.973207 12.743856 0.020454 1.177771 11.852887 0.114639 0.087632 -0.079239 -0.000000 0.000000 0.000000 0.000000 0.000000 0.000000 0.000000 
3.132501 16.536091 -1.604027 -165.191575 78.236732 -147.565016 10.921609 -2.019426 3.001545 0.954121 -2.632342 -2.105255 -8.237437 -2.612892 1.170532 8.868223 -3.330772 -4.964111 -4.847222 -0.369617 0.544975 0.000000 0.000000 0.000000 -0.206099 6.648736 2.552526 -36.503184 -12.861516 6.966488 -0.949872 -77.389274 0.039529 -10.443627 0.433004 -0.019794 0.019748 0.209598 0.000000 0.000000 0.000000 0.000000 0.000000 0.000000 0.000000 19.824178 -2.428897 1.303942 64.838615 -1.880722 -16.982513 3.959969 11.650866 0.020110 0.999998 11.939071 0.096828 0.086539 -0.080184 -0.000000 0.000000 0.000000 0.000000 0.000000 0.000000 0.000000 
3.293776 16.565668 -1.618224 -166.645243 77.266591 -148.864971 10.980109 -1.990756 2.942076 0.967501 -2.610043 -2.139983 -8.221544 -2.596991 1.112756 8.982219 -2.856773 -4.770091 -4.881215 -0.372710 0.596509 0.000000 0.000000 0.000000 -0.249417 6.487261 2.551906 -37.661573 -12.547244 7.977481 -1.003424 -76.893835 0.038472 -10.411306 0.456497 -0.022252 0.015176 0.204092 0.000000 0.000000 0.000000 0.000000 0.000000 0.000000 0.000000 20.023005 -2.018967 1.324843 64.680041 -0.961841 -17.265376 3.942161 10.662684 0.019794 0.844964 12.044584 0.081317 0.085290 -0.081497 -0.000000 0.000000 0.000000 0.000000 0.000000 0.000000 0.000000 
3.453321 16.600045 -1.632281 -168.298722 76.256120 -150.331616 10.939498 -1.972701 2.843855 0.963186 -2.595497 -2.180491 -8.201763 -2.588668 1.059531 9.093062 -2.408827 -4.584450 -4.908643 -0.375366 0.646444 0.000000 0.000000 0.000000 -0.309005 6.311809 2.558931 -38.790146 -12.232942 9.080185 -1.064003 -76.307388 0.037327 -10.400047 0.492681 -0.026111 0.010746 0.197678 0.000000 0.000000 0.000000 0.000000 0.000000 0.000000 0.000000 20.206982 -1.631845 1.343428 64.541805 -0.032541 -17.464687 3.921063 9.819034 0.019505 0.714446 12.159607 0.068211 0.083961 -0.083195 -0.000000 0.000000 0.000000 0.000000 0.000000 0.000000 0.000000 
3.611039 16.639043 -1.647154 -170.035992 75.217213 -151.857670 10.817523 -1.959158 2.720468 0.944944 -2.582538 -2.225268 -8.174585 -2.582090 1.006786 9.186059 -1.987758 -4.407651 -4.928150 -0.377498 0.694458 0.000000 0.000000 0.000000 -0.393531 6.113728 2.573319 -39.898552 -11.904094 10.253459 -1.132026 -75.624722 0.036077 -10.407769 0.543477 -0.031372 0.006439 0.190375 0.000000 0.000000 0.000000 0.000000 0.000000 0.000000 0.000000 20.353217 -1.263356 1.361997 64.429569 0.891375 -17.564843 3.898083 9.147442 0.019251 0.612206 12.274114 0.058007 0.082613 -0.085304 -0.000000 0.000000 0.000000 0.000000 0.000000 0.000000 0.000000 
3.766753 16.682405 -1.663862 -171.750369 74.164710 -153.347754 10.636396 -1.943028 2.587970 0.917216 -2.564107 -2.271285 -8.137082 -2.570282 0.954207 9.249285 -1.592426 -4.242767 -4.938355 -0.378969 0.739404 0.000000 0.000000 0.000000 -0.511380 5.909467 2.594326 -40.997741 -11.584318 11.484363 -1.209590 -74.820930 0.034733 -10.429838 0.608242 -0.038034 0.002088 0.182343 0.000000 0.000000 0.000000 0.000000 0.000000 0.000000 0.000000 20.442165 -0.906616 1.380484 64.345906 1.793878 -17.545476 3.875040 8.677509 0.019028 0.543106 12.373141 0.051105 0.081307 -0.087788 -0.000000 0.000000 0.000000 0.000000 0.000000 0.000000 0.000000 
3.920206 16.729841 -1.683147 -173.359711 73.115975 -154.734851 10.418271 -1.917379 2.463986 0.884204 -2.533250 -2.315653 -8.087050 -2.546413 0.899912 9.273741 -1.223290 -4.090504 -4.938428 -0.379703 0.780833 0.000000 0.000000 0.000000 -0.667677 5.702121 2.620408 -42.099489 -11.276540 12.752635 -1.297611 -73.881311 0.033280 -10.461706 0.685392 -0.045898 -0.002361 0.173696 0.000000 0.000000 0.000000 0.000000 0.000000 0.000000 0.000000 20.458862 -0.558000 1.399695 64.289926 2.666203 -17.390740 3.853754 8.423680 0.018844 0.513195 12.442924 0.048206 0.080087 -0.090610 -0.000000 0.000000 0.000000 0.000000 0.000000 0.000000 0.000000 
4.071215 16.781033 -1.705583 -174.806918 72.088476 -155.977107 10.183361 -1.876210 2.365829 0.849474 -2.483975 -2.354540 -8.023811 -2.504346 0.845766 9.255910 -0.878424 -3.953753 -4.928084 -0.379623 0.817627 0.000000 0.000000 0.000000 -0.865584 5.516348 2.650479 -43.210742 -11.015851 14.048748 -1.398294 -72.777645 0.031737 -10.497077 0.771126 -0.054763 -0.007112 0.164635 0.000000 0.000000 0.000000 0.000000 0.000000 0.000000 0.000000 20.397160 -0.211586 1.418159 64.255675 3.497579 -17.076728 3.835827 8.405055 0.018692 0.526504 12.466181 0.049909 0.078986 -0.093651 -0.000000 0.000000 0.000000 0.000000 0.000000 0.000000 0.000000 
4.219718 16.835496 -1.731374 -176.062828 71.095356 -157.057629 9.947832 -1.815321 2.302680 0.815864 -2.412433 -2.387804 -7.946694 -2.440461 0.786197 9.193375 -0.570547 -3.828589 -4.907878 -0.378839 0.850954 0.000000 0.000000 0.000000 -1.101546 5.311058 2.680147 -44.340715 -10.733295 15.329664 -1.507889 -71.535541 0.030073 -10.535173 0.866169 -0.064534 -0.011789 0.155084 0.000000 0.000000 0.000000 0.000000 0.000000 0.000000 0.000000 20.254585 0.118054 1.439546 64.232760 4.303471 -16.603125 3.822730 8.591139 0.018596 0.588365 12.440910 0.056715 0.078032 -0.096914 -0.000000 0.000000 0.000000 0.000000 0.000000 0.000000 0.000000 
4.365737 16.892699 -1.760502 -177.121044 70.147668 -157.982006 9.719591 -1.732910 2.286510 0.784167 -2.316681 -2.410252 -7.858648 -2.352127 0.732098 9.095317 -0.290344 -3.723580 -4.878862 -0.377278 0.878004 0.000000 0.000000 0.000000 -1.375099 5.163221 2.710710 -45.483572 -10.543577 16.618578 -1.631972 -70.095202 0.028336 -10.566902 0.960507 -0.074306 -0.017002 0.145433 0.000000 0.000000 0.000000 0.000000 0.000000 0.000000 0.000000 20.045735 0.444244 1.456955 64.205719 5.062899 -15.931162 3.814902 9.019488 0.018526 0.696364 12.346411 0.068123 0.077208 -0.100098 -0.000000 0.000000 0.000000 0.000000 0.000000 0.000000 0.000000 
4.509539 16.951951 -1.792702 -177.992135 69.249621 -158.766511 9.502216 -1.629058 2.316869 0.754703 -2.197130 -2.424486 -7.760738 -2.240131 0.674819 8.966390 -0.053976 -3.630465 -4.843073 -0.375222 0.901393 0.000000 0.000000 0.000000 -1.673973 5.000977 2.736922 -46.643039 -10.328329 17.857689 -1.762985 -68.513787 0.026498 -10.596878 1.058144 -0.084385 -0.022066 0.135480 0.000000 0.000000 0.000000 0.000000 0.000000 0.000000 0.000000 19.781775 0.744157 1.476209 64.158334 5.800391 -15.074595 3.812457 9.635730 0.018503 0.849497 12.192570 0.083932 0.076515 -0.103220 -0.000000 0.000000 0.000000 0.000000 0.000000 0.000000 0.000000 
4.651570 17.012413 -1.827484 -178.705843 68.402003 -159.441237 9.289232 -1.506807 2.392463 0.725556 -2.056736 -2.426678 -7.657825 -2.106587 0.630205 8.822171 0.146174 -3.561205 -4.802217 -0.372625 0.917507 0.000000 0.000000 0.000000 -1.994684 4.917899 2.761205 -47.801524 -10.221277 19.090830 -1.906887 -66.733316 0.024609 -10.615645 1.148041 -0.093666 -0.027727 0.125590 0.000000 0.000000 0.000000 0.000000 0.000000 0.000000 0.000000 19.487908 1.027454 1.488473 64.072321 6.503719 -14.020900 3.814473 10.461278 0.018500 1.046185 11.973488 0.103342 0.075867 -0.105977 -0.000000 0.000000 0.000000 0.000000 0.000000 0.000000 0.000000 
4.792362 17.073230 -1.864371 -179.291922 67.601115 -160.032819 9.073495 -1.369659 2.504538 0.695024 -1.899227 -2.420989 -7.552045 -1.955634 0.589810 8.671614 0.301109 -3.506421 -4.758941 -0.369819 0.929341 0.000000 0.000000 0.000000 -2.320840 4.845598 2.779819 -48.957406 -10.108365 20.265215 -2.055582 -64.816081 0.022654 -10.631333 1.236405 -0.102953 -0.033313 0.115569 0.000000 0.000000 0.000000 0.000000 0.000000 0.000000 0.000000 19.182406 1.277190 1.499451 63.931941 7.190500 -12.798860 3.819537 11.443233 0.018523 1.279387 11.706944 0.125253 0.075229 -0.108394 -0.000000 0.000000 0.000000 0.000000 0.000000 0.000000 0.000000 
